<svg width="29" height="21" viewBox="0 0 29 21" fill="none" xmlns="http://www.w3.org/2000/svg">
<rect x="0.0507812" y="0.847656" width="28" height="20" rx="2" fill="white"/>
<mask id="mask0_1365_15324" style="mask-type:luminance" maskUnits="userSpaceOnUse" x="0" y="0" width="29" height="21">
<rect x="0.0507812" y="0.847656" width="28" height="20" rx="2" fill="white"/>
</mask>
<g mask="url(#mask0_1365_15324)">
<path fill-rule="evenodd" clip-rule="evenodd" d="M0.0507812 14.181H28.0508V0.847656H0.0507812V14.181Z" fill="#E54252"/>
<path fill-rule="evenodd" clip-rule="evenodd" d="M0.0507812 20.8478H28.0508V14.1812H0.0507812V20.8478Z" fill="#5CBE6B"/>
<path fill-rule="evenodd" clip-rule="evenodd" d="M0.0507812 0.847656H4.05078V3.8457L3.38281 4.84766L4.05078 5.84961V7.8457L3.38281 8.84766L4.05078 9.84961V11.8457L3.38281 12.8477L4.05078 13.8496V15.8457L3.38281 16.8477L4.05078 17.8496V20.8477H0.0507812V0.847656Z" fill="white"/>
<path fill-rule="evenodd" clip-rule="evenodd" d="M-0.615885 2.84766L-1.94922 4.84766L-0.615885 6.84766L-1.94922 8.84766L-0.615885 10.8477L-1.94922 12.8477L-0.615885 14.8477L-1.94922 16.8477L-0.615885 18.8477L0.717448 16.8477L-0.615885 14.8477L0.717448 12.8477L-0.615885 10.8477L0.717448 8.84766L-0.615885 6.84766L0.717448 4.84766L-0.615885 2.84766Z" fill="#E54252"/>
<path fill-rule="evenodd" clip-rule="evenodd" d="M0.71875 2.84766L2.05208 0.847656L3.38542 2.84766L2.05208 4.84766L0.71875 2.84766ZM2.05208 8.84766L0.71875 6.84766L2.05208 4.84766L3.38542 6.84766L2.05208 8.84766ZM2.05208 12.8477L0.71875 10.8477L2.05208 8.84766L3.38542 10.8477L2.05208 12.8477ZM2.05208 16.8477L3.38542 14.8477L2.05208 12.8477L0.71875 14.8477L2.05208 16.8477ZM2.05208 16.8477L3.38542 18.8477L2.05208 20.8477L0.71875 18.8477L2.05208 16.8477Z" fill="#E54252"/>
</g>
</svg>
