<svg width="33" height="33" viewBox="0 0 33 33" fill="none" xmlns="http://www.w3.org/2000/svg">
<path fill-rule="evenodd" clip-rule="evenodd" d="M13.8238 8.97273C14.624 8.93673 14.879 8.92773 16.916 8.92773C18.953 8.92773 19.208 8.93673 20.0083 8.97273C20.8063 9.00948 21.3515 9.13623 21.8285 9.32148C22.3291 9.50964 22.7827 9.80475 23.1575 10.1862C23.539 10.5611 23.8341 11.0146 24.0223 11.5152C24.2075 11.9922 24.3343 12.5375 24.371 13.3355C24.407 14.1357 24.416 14.3907 24.416 16.4277C24.416 18.4647 24.407 18.7197 24.371 19.52C24.3343 20.318 24.2075 20.8632 24.0223 21.3402C23.8341 21.8409 23.539 22.2944 23.1575 22.6692C22.7827 23.0507 22.3291 23.3458 21.8285 23.534C21.3515 23.7192 20.8063 23.846 20.0083 23.8827C19.208 23.9195 18.953 23.9277 16.916 23.9277C14.879 23.9277 14.624 23.9195 13.8238 23.8827C13.0258 23.846 12.4805 23.7192 12.0035 23.534C11.5029 23.3458 11.0493 23.0507 10.6745 22.6692C10.293 22.2944 9.99792 21.8409 9.80977 21.3402C9.62452 20.8632 9.49777 20.318 9.46102 19.52C9.42427 18.7197 9.41602 18.4647 9.41602 16.4277C9.41602 14.3907 9.42427 14.1357 9.46102 13.3355C9.49777 12.5375 9.62452 11.9922 9.80977 11.5152C9.99792 11.0146 10.293 10.5611 10.6745 10.1862C11.0493 9.80475 11.5029 9.50964 12.0035 9.32148C12.4805 9.13623 13.0258 9.00948 13.8238 8.97273ZM16.916 12.6777C15.9215 12.6777 14.9676 13.0728 14.2644 13.7761C13.5611 14.4793 13.166 15.4332 13.166 16.4277C13.166 17.4223 13.5611 18.3761 14.2644 19.0794C14.9676 19.7826 15.9215 20.1777 16.916 20.1777C17.9106 20.1777 18.8644 19.7826 19.5677 19.0794C20.2709 18.3761 20.666 17.4223 20.666 16.4277C20.666 15.4332 20.2709 14.4793 19.5677 13.7761C18.8644 13.0728 17.9106 12.6777 16.916 12.6777ZM14.666 16.4277C14.666 15.831 14.9031 15.2587 15.325 14.8367C15.747 14.4148 16.3193 14.1777 16.916 14.1777C17.5128 14.1777 18.085 14.4148 18.507 14.8367C18.929 15.2587 19.166 15.831 19.166 16.4277C19.166 17.0245 18.929 17.5968 18.507 18.0187C18.085 18.4407 17.5128 18.6777 16.916 18.6777C16.3193 18.6777 15.747 18.4407 15.325 18.0187C14.9031 17.5968 14.666 17.0245 14.666 16.4277ZM21.416 12.6777C21.6149 12.6777 21.8057 12.5987 21.9463 12.4581C22.087 12.3174 22.166 12.1266 22.166 11.9277C22.166 11.7288 22.087 11.5381 21.9463 11.3974C21.8057 11.2568 21.6149 11.1777 21.416 11.1777C21.2171 11.1777 21.0263 11.2568 20.8857 11.3974C20.745 11.5381 20.666 11.7288 20.666 11.9277C20.666 12.1266 20.745 12.3174 20.8857 12.4581C21.0263 12.5987 21.2171 12.6777 21.416 12.6777Z" fill="white"/>
</svg>
