<svg width="33" height="33" viewBox="0 0 33 33" fill="none" xmlns="http://www.w3.org/2000/svg">
<path fill-rule="evenodd" clip-rule="evenodd" d="M23.6594 13.0823C23.5994 14.3735 22.682 16.1414 20.9067 18.3865C19.0707 20.7301 17.5182 21.9026 16.2478 21.9026C15.4608 21.9026 14.7945 21.1891 14.2505 19.7615L13.161 15.8343C12.7574 14.4073 12.324 13.6925 11.8603 13.6925C11.759 13.6925 11.406 13.9017 10.8005 14.3175L10.166 13.5143C10.8322 12.9385 11.489 12.3634 12.1357 11.7876C13.0247 11.0329 13.6923 10.636 14.1371 10.5955C15.1867 10.497 15.8341 11.2024 16.0764 12.713C16.339 14.3432 16.5205 15.3564 16.6225 15.7533C16.9255 17.106 17.259 17.781 17.6228 17.781C17.905 17.781 18.3296 17.3422 18.8952 16.4647C19.4602 15.5879 19.7633 14.921 19.8045 14.462C19.8855 13.7053 19.5817 13.3259 18.8952 13.3259C18.5726 13.3259 18.2391 13.3988 17.8962 13.5433C18.5597 11.4076 19.8274 10.3707 21.6985 10.4301C23.0857 10.47 23.7398 11.3536 23.6594 13.0823Z" fill="white"/>
</svg>
