<svg width="33" height="33" viewBox="0 0 33 33" fill="none" xmlns="http://www.w3.org/2000/svg">
<path fill-rule="evenodd" clip-rule="evenodd" d="M15.2128 18.4257L15.212 13.7577L19.6708 16.1L15.2128 18.4257ZM25.001 12.9485C25.001 12.9485 24.8398 11.804 24.3455 11.2992C23.7178 10.6377 23.0143 10.6347 22.6918 10.5957C20.3833 10.4277 16.9198 10.4277 16.9198 10.4277H16.9123C16.9123 10.4277 13.4488 10.4277 11.1403 10.5957C10.8178 10.6347 10.1143 10.6377 9.48652 11.2992C8.99152 11.804 8.83102 12.9492 8.83102 12.9492C8.83102 12.9492 8.66602 14.2925 8.66602 15.6372V16.8972C8.66602 18.242 8.83102 19.5867 8.83102 19.5867C8.83102 19.5867 8.99227 20.732 9.48652 21.2367C10.1143 21.8982 10.9385 21.8765 11.306 21.9462C12.626 22.0737 16.916 22.1135 16.916 22.1135C16.916 22.1135 20.3833 22.1082 22.6918 21.9402C23.0143 21.9012 23.7178 21.8982 24.3455 21.236C24.8405 20.732 25.001 19.5867 25.001 19.5867C25.001 19.5867 25.166 18.242 25.166 16.898V15.6372C25.166 14.2925 25.001 12.9477 25.001 12.9477V12.9485Z" fill="white"/>
</svg>
