<svg width="33" height="33" viewBox="0 0 33 33" fill="none" xmlns="http://www.w3.org/2000/svg">
<path fill-rule="evenodd" clip-rule="evenodd" d="M22.6774 16.326C22.6774 16.326 25.0181 12.9926 25.2515 11.8974C25.3291 11.5065 25.1578 11.2876 24.7548 11.2876H22.7234C22.2582 11.2876 22.0878 11.4903 21.9481 11.7883C21.9481 11.7883 20.8496 14.1492 19.5145 15.6378C19.0848 16.1184 18.8667 16.2638 18.6301 16.2638C18.4394 16.2638 18.3514 16.1022 18.3514 15.6685V11.8659C18.3514 11.3344 18.2892 11.1777 17.8547 11.1777H14.5997C14.3509 11.1777 14.1958 11.3231 14.1958 11.5218C14.1958 12.0226 14.9551 12.1357 14.9551 13.4934V16.2945C14.9551 16.8582 14.9244 17.0771 14.6611 17.0771C13.9632 17.0771 12.3042 14.6516 11.3737 11.8974C11.188 11.3344 10.9861 11.1777 10.4586 11.1777H8.42809C8.13328 11.1777 7.91602 11.3813 7.91602 11.6785C7.91602 12.2261 8.55167 14.7615 11.0482 18.1562C12.7226 20.442 14.9252 21.6777 16.9089 21.6777C18.1188 21.6777 18.4136 21.4742 18.4136 20.9581V19.2054C18.4136 18.7668 18.5832 18.5794 18.832 18.5794C19.1106 18.5794 19.6033 18.6699 20.7543 19.8152C22.1193 21.1309 22.2122 21.6777 22.9561 21.6777H25.2354C25.468 21.6777 25.6852 21.5679 25.6852 21.177C25.6852 20.66 25.0181 19.7377 23.9947 18.6416C23.5764 18.0787 22.8947 17.468 22.6774 17.187C22.3672 16.8582 22.4601 16.67 22.6774 16.326Z" fill="white"/>
</svg>
