<svg width="25" height="25" viewBox="0 0 25 25" fill="none" xmlns="http://www.w3.org/2000/svg">
<path d="M3.19531 6.54377C3.19531 5.73004 3.51857 4.94963 4.09396 4.37424C4.66936 3.79884 5.44976 3.47559 6.26349 3.47559H8.51349V8.79377H3.19531V6.54377ZM3.19531 10.021V14.9301H8.51349V10.021H3.19531ZM3.19531 16.1574V18.4074C3.19531 19.2211 3.51857 20.0015 4.09396 20.5769C4.66936 21.1523 5.44976 21.4756 6.26349 21.4756H8.51349V16.1574H3.19531ZM9.74077 21.4756H14.6499V16.1574H9.74077V21.4756ZM15.8771 21.4756H18.1271C18.9409 21.4756 19.7213 21.1523 20.2967 20.5769C20.8721 20.0015 21.1953 19.2211 21.1953 18.4074V16.1574H15.8771V21.4756ZM21.1953 14.9301V10.021H15.8771V14.9301H21.1953ZM21.1953 8.79377V6.54377C21.1953 5.73004 20.8721 4.94963 20.2967 4.37424C19.7213 3.79884 18.9409 3.47559 18.1271 3.47559H15.8771V8.79377H21.1953ZM14.6499 3.47559H9.74077V8.79377H14.6499V3.47559ZM14.6499 10.021V14.9301H9.74077V10.021H14.6499Z" fill="#6B7A99"/>
</svg>
