<svg width="50" height="45" viewBox="0 0 50 45" fill="none" xmlns="http://www.w3.org/2000/svg">
<path d="M0.839844 0.84375H46.8398C48.4967 0.84375 49.8398 2.1869 49.8398 3.84375V41.8438C49.8398 43.5006 48.4967 44.8438 46.8398 44.8438H0.839844V0.84375Z" fill="#66C314"/>
<path d="M29.6798 26.0881C30.4372 24.9507 30.8408 23.6145 30.8398 22.2481C30.8419 20.6901 30.3242 19.176 29.3687 17.9455C28.4132 16.715 27.0745 15.8384 25.5646 15.4546C24.0547 15.0707 22.4599 15.2015 21.0327 15.8263C19.6056 16.451 18.4276 17.534 17.6854 18.9038C16.9431 20.2735 16.679 21.8517 16.9349 23.3885C17.1908 24.9253 17.952 26.3328 19.0981 27.3881C20.2441 28.4434 21.7094 29.0863 23.2621 29.2149C24.8147 29.3435 26.3658 28.9505 27.6698 28.0981L30.8398 31.2481L32.8398 29.2481L29.6798 26.0881ZM18.8398 22.2481C18.8398 21.2591 19.1331 20.2924 19.6825 19.4702C20.2319 18.648 21.0128 18.0071 21.9264 17.6287C22.8401 17.2502 23.8454 17.1512 24.8153 17.3441C25.7852 17.5371 26.6761 18.0133 27.3754 18.7125C28.0746 19.4118 28.5508 20.3027 28.7438 21.2726C28.9367 22.2425 28.8377 23.2478 28.4592 24.1615C28.0808 25.0751 27.4399 25.856 26.6177 26.4054C25.7955 26.9548 24.8288 27.2481 23.8398 27.2481C22.5138 27.2481 21.242 26.7213 20.3043 25.7836C19.3666 24.8459 18.8398 23.5741 18.8398 22.2481Z" fill="white"/>
</svg>
